<svg version="1.1" xmlns="http://www.w3.org/2000/svg" viewBox="0 0 1097.889786683904 924.7728937728937" width="1097.889786683904" height="924.7728937728937">
  <!-- svg-source:excalidraw -->
  
  <defs>
    <style>
      @font-face {
        font-family: "Virgil";
        src: url("https://excalidraw.com/Virgil.woff2");
      }
      @font-face {
        font-family: "Cascadia";
        src: url("https://excalidraw.com/Cascadia.woff2");
      }
    </style>
  </defs>
  <rect x="0" y="0" width="1097.889786683904" height="924.7728937728937" fill="#ffffff"></rect><g stroke-linecap="round"><g transform="translate(1087.889786683904 914.7728937728937) rotate(0 0 0)"><path d="M0 0 C0 0, 0 0, 0 0 M0 0 C0 0, 0 0, 0 0" stroke="#ffff" stroke-width="1" fill="none"></path></g></g><g stroke-linecap="round" transform="translate(489.16671752929693 10) rotate(0 100.8333587646485 128.3333396911621)"><path d="M101 0 L201.67 129 L101 256.67 L0 129" stroke="none" stroke-width="0" fill="#4c6ef5" fill-rule="evenodd"></path><path d="M101 0 C137.76 47.11, 174.53 94.22, 201.67 129 M101 0 C122.37 27.39, 143.74 54.77, 201.67 129 M201.67 129 C180.49 155.85, 159.32 182.7, 101 256.67 M201.67 129 C174.8 163.07, 147.94 197.14, 101 256.67 M101 256.67 C75.13 223.97, 49.27 191.28, 0 129 M101 256.67 C67.48 214.29, 33.95 171.91, 0 129 M0 129 C20.39 102.95, 40.78 76.91, 101 0 M0 129 C39.91 78.02, 79.82 27.05, 101 0" stroke="#ffff" stroke-width="1" fill="none"></path></g><g transform="translate(511.6666793823243 121.16666030883789) rotate(0 75.83332061767575 17.27314525180392)"><text x="75.83332061767575" y="27.546290503607842" font-family="Helvetica, Segoe UI Emoji" font-size="30.333328247070302px" fill="#ffff" text-anchor="middle" style="white-space: pre;" direction="ltr">mapshaper</text></g><g stroke-linecap="round"><g transform="translate(257.035490590631 140.10523356327838) rotate(0 109.88473722824172 1.1670520984155246)"><path d="M0 0 C36.63 0.39, 183.14 1.95, 219.77 2.33 M0 0 C36.63 0.39, 183.14 1.95, 219.77 2.33" stroke="#495057" stroke-width="1" fill="none"></path></g><g transform="translate(257.035490590631 140.10523356327838) rotate(0 109.88473722824172 1.1670520984155246)"><path d="M191.47 12.29 C199.16 9.59, 206.84 6.89, 219.77 2.33 M191.47 12.29 C202.05 8.57, 212.63 4.85, 219.77 2.33" stroke="#495057" stroke-width="1" fill="none"></path></g><g transform="translate(257.035490590631 140.10523356327838) rotate(0 109.88473722824172 1.1670520984155246)"><path d="M191.69 -8.23 C199.31 -5.36, 206.94 -2.49, 219.77 2.33 M191.69 -8.23 C202.19 -4.28, 212.69 -0.33, 219.77 2.33" stroke="#495057" stroke-width="1" fill="none"></path></g></g><g stroke-linecap="round"><g transform="translate(696.5111756489575 137.72647450691227) rotate(0 99.24441217552123 1.1140867543945276)"><path d="M0 0 C33.08 0.37, 165.41 1.86, 198.49 2.23 M0 0 C33.08 0.37, 165.41 1.86, 198.49 2.23" stroke="#495057" stroke-width="1" fill="none"></path></g><g transform="translate(696.5111756489575 137.72647450691227) rotate(0 99.24441217552123 1.1140867543945276)"><path d="M170.18 12.17 C176.76 9.86, 183.34 7.55, 198.49 2.23 M170.18 12.17 C176.21 10.06, 182.23 7.94, 198.49 2.23" stroke="#495057" stroke-width="1" fill="none"></path></g><g transform="translate(696.5111756489575 137.72647450691227) rotate(0 99.24441217552123 1.1140867543945276)"><path d="M170.41 -8.35 C176.94 -5.89, 183.46 -3.43, 198.49 2.23 M170.41 -8.35 C176.39 -6.1, 182.36 -3.85, 198.49 2.23" stroke="#495057" stroke-width="1" fill="none"></path></g></g><g stroke-linecap="round" transform="translate(140.00000000000006 395.83324432373036) rotate(0 90.41667938232423 78.33332061767574)"><path d="M90.42 0 C102.31 -1.19, 116.58 2.57, 127.97 7.07 C139.35 11.58, 150.53 18.83, 158.73 27.02 C166.93 35.21, 173.63 45.83, 177.16 56.23 C180.69 66.63, 181.69 78.7, 179.92 89.44 C178.15 100.17, 173.27 111.51, 166.52 120.64 C159.76 129.76, 149.89 138.32, 139.37 144.19 C128.84 150.06, 115.76 154.3, 103.38 155.86 C90.99 157.41, 77.06 156.56, 65.04 153.52 C53.03 150.48, 40.77 144.69, 31.3 137.6 C21.83 130.51, 13.44 120.84, 8.23 110.98 C3.01 101.12, 0.02 89.3, 0 78.46 C-0.02 67.62, 2.93 55.79, 8.11 45.92 C13.28 36.05, 21.63 26.35, 31.08 19.23 C40.52 12.11, 54.88 6.42, 64.77 3.22 C74.66 0.01, 86.14 0.28, 90.42 0 C94.69 -0.28, 90.42 0.26, 90.42 1.57 M90.42 0 C102.31 -1.19, 116.58 2.57, 127.97 7.07 C139.35 11.58, 150.53 18.83, 158.73 27.02 C166.93 35.21, 173.63 45.83, 177.16 56.23 C180.69 66.63, 181.69 78.7, 179.92 89.44 C178.15 100.17, 173.27 111.51, 166.52 120.64 C159.76 129.76, 149.89 138.32, 139.37 144.19 C128.84 150.06, 115.76 154.3, 103.38 155.86 C90.99 157.41, 77.06 156.56, 65.04 153.52 C53.03 150.48, 40.77 144.69, 31.3 137.6 C21.83 130.51, 13.44 120.84, 8.23 110.98 C3.01 101.12, 0.02 89.3, 0 78.46 C-0.02 67.62, 2.93 55.79, 8.11 45.92 C13.28 36.05, 21.63 26.35, 31.08 19.23 C40.52 12.11, 54.88 6.42, 64.77 3.22 C74.66 0.01, 86.14 0.28, 90.42 0 C94.69 -0.28, 90.42 0.26, 90.42 1.57" stroke="none" stroke-width="0" fill="#82c91e"></path><path d="M90.42 0 C102.31 -1.19, 116.58 2.57, 127.97 7.07 C139.35 11.58, 150.53 18.83, 158.73 27.02 C166.93 35.21, 173.63 45.83, 177.16 56.23 C180.69 66.63, 181.69 78.7, 179.92 89.44 C178.15 100.17, 173.27 111.51, 166.52 120.64 C159.76 129.76, 149.89 138.32, 139.37 144.19 C128.84 150.06, 115.76 154.3, 103.38 155.86 C90.99 157.41, 77.06 156.56, 65.04 153.52 C53.03 150.48, 40.77 144.69, 31.3 137.6 C21.83 130.51, 13.44 120.84, 8.23 110.98 C3.01 101.12, 0.02 89.3, 0 78.46 C-0.02 67.62, 2.93 55.79, 8.11 45.92 C13.28 36.05, 21.63 26.35, 31.08 19.23 C40.52 12.11, 54.88 6.42, 64.77 3.22 C74.66 0.01, 86.14 0.28, 90.42 0 C94.69 -0.28, 90.42 0.26, 90.42 1.57 M90.42 0 C102.31 -1.19, 116.58 2.57, 127.97 7.07 C139.35 11.58, 150.53 18.83, 158.73 27.02 C166.93 35.21, 173.63 45.83, 177.16 56.23 C180.69 66.63, 181.69 78.7, 179.92 89.44 C178.15 100.17, 173.27 111.51, 166.52 120.64 C159.76 129.76, 149.89 138.32, 139.37 144.19 C128.84 150.06, 115.76 154.3, 103.38 155.86 C90.99 157.41, 77.06 156.56, 65.04 153.52 C53.03 150.48, 40.77 144.69, 31.3 137.6 C21.83 130.51, 13.44 120.84, 8.23 110.98 C3.01 101.12, 0.02 89.3, 0 78.46 C-0.02 67.62, 2.93 55.79, 8.11 45.92 C13.28 36.05, 21.63 26.35, 31.08 19.23 C40.52 12.11, 54.88 6.42, 64.77 3.22 C74.66 0.01, 86.14 0.28, 90.42 0 C94.69 -0.28, 90.42 0.26, 90.42 1.57" stroke="#495057" stroke-width="1" fill="none"></path></g><g transform="translate(174.16671752929688 463) rotate(0 51.50396579649386 13.197891235351562)"><text x="0" y="21.3957824707031" font-family="Helvetica, Segoe UI Emoji" font-size="23.17678460842224px" fill="#495057" text-anchor="start" style="white-space: pre;" direction="ltr">Leaflet JS</text></g><g stroke-linecap="round" transform="translate(10 75.83333969116211) rotate(0 120.13317804700372 72.91665077209473)"><path d="M0 0 L240.27 0 L240.27 145.83 L0 145.83" stroke="none" stroke-width="0" fill="#12b886"></path><path d="M0 0 C66.02 0, 132.04 0, 240.27 0 M0 0 C91.03 0, 182.05 0, 240.27 0 M240.27 0 C240.27 54.41, 240.27 108.81, 240.27 145.83 M240.27 0 C240.27 39.51, 240.27 79.02, 240.27 145.83 M240.27 145.83 C150.48 145.83, 60.7 145.83, 0 145.83 M240.27 145.83 C173.59 145.83, 106.92 145.83, 0 145.83 M0 145.83 C0 94.54, 0 43.24, 0 0 M0 145.83 C0 111.13, 0 76.43, 0 0" stroke="#495057" stroke-width="1" fill="none"></path></g><g transform="translate(36.41736385995648 131.2977891441218) rotate(0 87.1413798967818 21.78534497419545)"><text x="87.1413798967818" y="35.5706899483909" font-family="Helvetica, Segoe UI Emoji" font-size="38.25719117419689px" fill="#ffff" text-anchor="middle" style="white-space: pre;" direction="ltr">GeoJSON</text></g><g transform="translate(65 232.16671752929688) rotate(0 53.16666030883789 17.029945880174637)"><text x="0" y="27.059891760349274" font-family="Helvetica, Segoe UI Emoji" font-size="29.906246423721313px" fill="#495057" text-anchor="start" style="white-space: pre;" direction="ltr">1055 kb</text></g><g stroke-linecap="round" transform="translate(906.25 123.3333683013916) rotate(0 68.64755051394297 41.666669845581055)"><path d="M0 0 L137.3 0 L137.3 83.33 L0 83.33" stroke="none" stroke-width="0" fill="#e64980"></path><path d="M0 0 C47 0, 94 0, 137.3 0 M0 0 C34.56 0, 69.13 0, 137.3 0 M137.3 0 C137.3 28.06, 137.3 56.12, 137.3 83.33 M137.3 0 C137.3 30.18, 137.3 60.35, 137.3 83.33 M137.3 83.33 C92.16 83.33, 47.03 83.33, 0 83.33 M137.3 83.33 C103.42 83.33, 69.55 83.33, 0 83.33 M0 83.33 C0 64.41, 0 45.49, 0 0 M0 83.33 C0 56.34, 0 29.34, 0 0" stroke="#495057" stroke-width="1" fill="none"></path></g><g transform="translate(918.0669519539281 155.0273487441661) rotate(0 52.86885979879787 12.295083674139041)"><text x="52.868859798797885" y="19.590167348278083" font-family="Helvetica, Segoe UI Emoji" font-size="21.86125853279845px" fill="#ffff" text-anchor="middle" style="white-space: pre;" direction="ltr">TopoJSON</text></g><g transform="translate(938.3333587646484 212.99998092651367) rotate(0 38.58335876464844 14.647386197690608)"><text x="0" y="24.29477239538122" font-family="Helvetica, Segoe UI Emoji" font-size="25.72223917643229px" fill="#495057" text-anchor="start" style="white-space: pre;" direction="ltr">373 kb</text></g><g stroke-linecap="round"><g transform="translate(940.0000762939453 253.33335876464844) rotate(0 -77.16210690396008 82.27459761186908)"><path d="M0 0 C-25.72 27.42, -128.6 137.12, -154.32 164.55 M0 0 C-25.72 27.42, -128.6 137.12, -154.32 164.55" stroke="#495057" stroke-width="1" fill="none"></path></g><g transform="translate(940.0000762939453 253.33335876464844) rotate(0 -77.16210690396008 82.27459761186908)"><path d="M-142.52 136.97 C-145.61 144.19, -148.71 151.42, -154.32 164.55 M-142.52 136.97 C-145.39 143.66, -148.25 150.36, -154.32 164.55" stroke="#495057" stroke-width="1" fill="none"></path></g><g transform="translate(940.0000762939453 253.33335876464844) rotate(0 -77.16210690396008 82.27459761186908)"><path d="M-127.56 151.01 C-134.57 154.55, -141.58 158.1, -154.32 164.55 M-127.56 151.01 C-134.05 154.29, -140.55 157.58, -154.32 164.55" stroke="#495057" stroke-width="1" fill="none"></path></g></g><g stroke-linecap="round"><g transform="translate(731.5438198344623 468.6274833326002) rotate(0 -194.7338497153712 1.8529869204751321)"><path d="M0 0 C-64.91 0.62, -324.56 3.09, -389.47 3.71 M0 0 C-64.91 0.62, -324.56 3.09, -389.47 3.71" stroke="#495057" stroke-width="1" fill="none"></path></g><g transform="translate(731.5438198344623 468.6274833326002) rotate(0 -194.7338497153712 1.8529869204751321)"><path d="M-361.38 -6.82 C-372.17 -2.78, -382.96 1.27, -389.47 3.71 M-361.38 -6.82 C-369.87 -3.64, -378.36 -0.46, -389.47 3.71" stroke="#495057" stroke-width="1" fill="none"></path></g><g transform="translate(731.5438198344623 468.6274833326002) rotate(0 -194.7338497153712 1.8529869204751321)"><path d="M-361.18 13.7 C-372.05 9.86, -382.92 6.02, -389.47 3.71 M-361.18 13.7 C-369.73 10.68, -378.29 7.66, -389.47 3.71" stroke="#495057" stroke-width="1" fill="none"></path></g></g><g stroke-linecap="round" transform="translate(752.5 429.1666793823242) rotate(0 78.23597574038189 49.166641235351534)"><path d="M0 0 C51.45 0, 102.91 0, 156.47 0 M0 0 C40.84 0, 81.67 0, 156.47 0 M156.47 0 C156.47 28.58, 156.47 57.15, 156.47 98.33 M156.47 0 C156.47 21.79, 156.47 43.58, 156.47 98.33 M156.47 98.33 C103.29 98.33, 50.1 98.33, 0 98.33 M156.47 98.33 C122.39 98.33, 88.32 98.33, 0 98.33 M0 98.33 C0 71.37, 0 44.41, 0 0 M0 98.33 C0 64.38, 0 30.42, 0 0" stroke="#495057" stroke-width="1" fill="none"></path></g><g stroke-linecap="round" transform="translate(763.7455311128786 443.4914386988535) rotate(0 37.20342544185269 11.36023555460335)"><path d="M0 0 L74.41 0 L74.41 22.72 L0 22.72" stroke="none" stroke-width="0" fill="#cc3534"></path><path d="M0 0 C20.83 0, 41.67 0, 74.41 0 M0 0 C18.49 0, 36.97 0, 74.41 0 M74.41 0 C74.41 4.67, 74.41 9.35, 74.41 22.72 M74.41 0 C74.41 9.08, 74.41 18.15, 74.41 22.72 M74.41 22.72 C52.18 22.72, 29.96 22.72, 0 22.72 M74.41 22.72 C53.08 22.72, 31.76 22.72, 0 22.72 M0 22.72 C0 17.74, 0 12.75, 0 0 M0 22.72 C0 17.71, 0 12.69, 0 0" stroke="#cc3534" stroke-width="1" fill="none"></path></g><g stroke-linecap="round" transform="translate(783.0202435704518 466.21190980806034) rotate(0 8.883596523741971 3.015038820179086)"><path d="M0 0 L17.77 0 L17.77 6.03 L0 6.03" stroke="none" stroke-width="0" fill="#cc3534"></path><path d="M0 0 C4.94 0, 9.88 0, 17.77 0 M0 0 C5.17 0, 10.34 0, 17.77 0 M17.77 0 C17.77 1.86, 17.77 3.71, 17.77 6.03 M17.77 0 C17.77 1.51, 17.77 3.03, 17.77 6.03 M17.77 6.03 C13.53 6.03, 9.3 6.03, 0 6.03 M17.77 6.03 C11 6.03, 4.24 6.03, 0 6.03 M0 6.03 C0 4.43, 0 2.82, 0 0 M0 6.03 C0 4.27, 0 2.51, 0 0" stroke="#cc3534" stroke-width="1" fill="none"></path></g><g stroke-linecap="round" transform="translate(767.4534670532228 448.2293568448493) rotate(0 3.607278588428528 7.4837570715159245)"><path d="M0 0 L7.21 0 L7.21 14.97 L0 14.97" stroke="none" stroke-width="0" fill="#ffffff"></path><path d="M0 0 C2.47 0, 4.94 0, 7.21 0 M0 0 C2.36 0, 4.72 0, 7.21 0 M7.21 0 C7.21 4.27, 7.21 8.53, 7.21 14.97 M7.21 0 C7.21 4.5, 7.21 9.01, 7.21 14.97 M7.21 14.97 C5.34 14.97, 3.46 14.97, 0 14.97 M7.21 14.97 C5.25 14.97, 3.29 14.97, 0 14.97 M0 14.97 C0 11.53, 0 8.09, 0 0 M0 14.97 C0 9.48, 0 4, 0 0" stroke="#ffffff" stroke-width="1" fill="none"></path></g><g stroke-linecap="round" transform="translate(767.4534670532228 447.5832770976685) rotate(0 5.653197787835779 1.9920792204754605)"><path d="M0 0 L11.31 0 L11.31 3.98 L0 3.98" stroke="none" stroke-width="0" fill="#ffffff"></path><path d="M0 0 C4.02 0, 8.04 0, 11.31 0 M0 0 C3.01 0, 6.01 0, 11.31 0 M11.31 0 C11.31 0.97, 11.31 1.95, 11.31 3.98 M11.31 0 C11.31 1.51, 11.31 3.02, 11.31 3.98 M11.31 3.98 C7.06 3.98, 2.81 3.98, 0 3.98 M11.31 3.98 C7.54 3.98, 3.77 3.98, 0 3.98 M0 3.98 C0 3.02, 0 2.06, 0 0 M0 3.98 C0 2.48, 0 0.97, 0 0" stroke="#ffffff" stroke-width="1" fill="none"></path></g><g stroke-linecap="round" transform="translate(778.7598626288941 447.5832770976685) rotate(0 2.1535991572707758 7.914476902970108)"><path d="M0 0 L4.31 0 L4.31 15.83 L0 15.83" stroke="none" stroke-width="0" fill="#ffffff"></path><path d="M0 0 C1.69 0, 3.39 0, 4.31 0 M0 0 C1.19 0, 2.38 0, 4.31 0 M4.31 0 C4.31 4.74, 4.31 9.48, 4.31 15.83 M4.31 0 C4.31 5.46, 4.31 10.91, 4.31 15.83 M4.31 15.83 C2.88 15.83, 1.45 15.83, 0 15.83 M4.31 15.83 C2.63 15.83, 0.95 15.83, 0 15.83 M0 15.83 C0 10.91, 0 5.99, 0 0 M0 15.83 C0 11.17, 0 6.51, 0 0" stroke="#ffffff" stroke-width="1" fill="none"></path></g><g stroke-linecap="round" transform="translate(786.4051396372054 447.4755971398044) rotate(0 4.845598103859231 10.66265669713954)"><path d="M0 0 L9.69 0 L9.69 21.33 L0 21.33" stroke="none" stroke-width="0" fill="#ffffff"></path><path d="M0 0 C3.28 0, 6.55 0, 9.69 0 M0 0 C2.2 0, 4.41 0, 9.69 0 M9.69 0 C9.69 5.81, 9.69 11.61, 9.69 21.33 M9.69 0 C9.69 6.57, 9.69 13.14, 9.69 21.33 M9.69 21.33 C6.28 21.33, 2.87 21.33, 0 21.33 M9.69 21.33 C6.38 21.33, 3.07 21.33, 0 21.33 M0 21.33 C0 14.76, 0 8.19, 0 0 M0 21.33 C0 13.35, 0 5.37, 0 0" stroke="#ffffff" stroke-width="1" fill="none"></path></g><g stroke-linecap="round" transform="translate(792.8120971300871 447.5294371187368) rotate(0 5.653197787835779 2.0459191994072228)"><path d="M0 0 L11.31 0 L11.31 4.09 L0 4.09" stroke="none" stroke-width="0" fill="#ffffff"></path><path d="M0 0 C2.53 0, 5.06 0, 11.31 0 M0 0 C3.07 0, 6.14 0, 11.31 0 M11.31 0 C11.31 1.23, 11.31 2.47, 11.31 4.09 M11.31 0 C11.31 1.16, 11.31 2.32, 11.31 4.09 M11.31 4.09 C7.94 4.09, 4.56 4.09, 0 4.09 M11.31 4.09 C9.04 4.09, 6.78 4.09, 0 4.09 M0 4.09 C0 3.08, 0 2.07, 0 0 M0 4.09 C0 3.24, 0 2.39, 0 0" stroke="#ffffff" stroke-width="1" fill="none"></path></g><g stroke-linecap="round" transform="translate(800.2958542016017 447.52943711873627) rotate(0 2.0997591783390135 7.806796945106555)"><path d="M0 0 L4.2 0 L4.2 15.61 L0 15.61" stroke="none" stroke-width="0" fill="#ffffff"></path><path d="M0 0 C1.55 0, 3.1 0, 4.2 0 M0 0 C1.34 0, 2.68 0, 4.2 0 M4.2 0 C4.2 3.81, 4.2 7.62, 4.2 15.61 M4.2 0 C4.2 4.37, 4.2 8.74, 4.2 15.61 M4.2 15.61 C2.68 15.61, 1.17 15.61, 0 15.61 M4.2 15.61 C3.29 15.61, 2.38 15.61, 0 15.61 M0 15.61 C0 11.99, 0 8.37, 0 0 M0 15.61 C0 10.51, 0 5.4, 0 0" stroke="#ffffff" stroke-width="1" fill="none"></path></g><g stroke-linecap="round" transform="translate(793.1351370036759 459.15887256799857) rotate(0 5.653197787835779 1.9920792204754605)"><path d="M0 0 L11.31 0 L11.31 3.98 L0 3.98" stroke="none" stroke-width="0" fill="#ffffff"></path><path d="M0 0 C3.81 0, 7.61 0, 11.31 0 M0 0 C3.35 0, 6.7 0, 11.31 0 M11.31 0 C11.31 1.05, 11.31 2.1, 11.31 3.98 M11.31 0 C11.31 1.49, 11.31 2.97, 11.31 3.98 M11.31 3.98 C8.29 3.98, 5.27 3.98, 0 3.98 M11.31 3.98 C8.32 3.98, 5.33 3.98, 0 3.98 M0 3.98 C0 2.58, 0 1.18, 0 0 M0 3.98 C0 2.39, 0 0.8, 0 0" stroke="#ffffff" stroke-width="1" fill="none"></path></g><g stroke-linecap="round" transform="translate(807.7987078331519 447.40278380445295) rotate(0 4.845598103859231 7.877023004582782)"><path d="M0 0 L9.69 0 L9.69 15.75 L0 15.75" stroke="none" stroke-width="0" fill="#ffffff"></path><path d="M0 0 C3.83 0, 7.66 0, 9.69 0 M0 0 C2.98 0, 5.97 0, 9.69 0 M9.69 0 C9.69 4.89, 9.69 9.77, 9.69 15.75 M9.69 0 C9.69 5.81, 9.69 11.63, 9.69 15.75 M9.69 15.75 C5.95 15.75, 2.2 15.75, 0 15.75 M9.69 15.75 C7.68 15.75, 5.66 15.75, 0 15.75 M0 15.75 C0 11.6, 0 7.44, 0 0 M0 15.75 C0 10.55, 0 5.35, 0 0" stroke="#ffffff" stroke-width="1" fill="none"></path></g><g stroke-linecap="round" transform="translate(821.9180472356204 447.4987594190704) rotate(0 2.1535991572707758 7.914476902970108)"><path d="M0 0 L4.31 0 L4.31 15.83 L0 15.83" stroke="none" stroke-width="0" fill="#ffffff"></path><path d="M0 0 C1.57 0, 3.14 0, 4.31 0 M0 0 C0.97 0, 1.94 0, 4.31 0 M4.31 0 C4.31 4.62, 4.31 9.23, 4.31 15.83 M4.31 0 C4.31 4.05, 4.31 8.1, 4.31 15.83 M4.31 15.83 C3.06 15.83, 1.81 15.83, 0 15.83 M4.31 15.83 C3.36 15.83, 2.41 15.83, 0 15.83 M0 15.83 C0 11.25, 0 6.68, 0 0 M0 15.83 C0 10.47, 0 5.12, 0 0" stroke="#ffffff" stroke-width="1" fill="none"></path></g><g stroke-linecap="round" transform="translate(813.8958903747866 447.4449194401383) rotate(0 5.653197787835779 2.0459191994072228)"><path d="M0 0 L11.31 0 L11.31 4.09 L0 4.09" stroke="none" stroke-width="0" fill="#ffffff"></path><path d="M0 0 C2.81 0, 5.62 0, 11.31 0 M0 0 C2.33 0, 4.65 0, 11.31 0 M11.31 0 C11.31 1.63, 11.31 3.27, 11.31 4.09 M11.31 0 C11.31 1.22, 11.31 2.44, 11.31 4.09 M11.31 4.09 C8.07 4.09, 4.83 4.09, 0 4.09 M11.31 4.09 C8.83 4.09, 6.35 4.09, 0 4.09 M0 4.09 C0 3.19, 0 2.29, 0 0 M0 4.09 C0 2.71, 0 1.33, 0 0" stroke="#ffffff" stroke-width="1" fill="none"></path></g><g stroke-linecap="round" transform="translate(820.2490078887356 447.4449194401383) rotate(0 5.653197787835779 2.0459191994072228)"><path d="M0 0 L11.31 0 L11.31 4.09 L0 4.09" stroke="none" stroke-width="0" fill="#ffffff"></path><path d="M0 0 C3.29 0, 6.58 0, 11.31 0 M0 0 C3.48 0, 6.96 0, 11.31 0 M11.31 0 C11.31 1.03, 11.31 2.05, 11.31 4.09 M11.31 0 C11.31 0.98, 11.31 1.95, 11.31 4.09 M11.31 4.09 C7 4.09, 2.7 4.09, 0 4.09 M11.31 4.09 C8.3 4.09, 5.29 4.09, 0 4.09 M0 4.09 C0 2.9, 0 1.7, 0 0 M0 4.09 C0 2.69, 0 1.28, 0 0" stroke="#ffffff" stroke-width="1" fill="none"></path></g><g stroke-linecap="round" transform="translate(829.9940440753862 447.4987594190704) rotate(0 2.1535991572707758 7.914476902970108)"><path d="M0 0 L4.31 0 L4.31 15.83 L0 15.83" stroke="none" stroke-width="0" fill="#ffffff"></path><path d="M0 0 C1.41 0, 2.82 0, 4.31 0 M0 0 C1.23 0, 2.46 0, 4.31 0 M4.31 0 C4.31 4.76, 4.31 9.53, 4.31 15.83 M4.31 0 C4.31 4.12, 4.31 8.24, 4.31 15.83 M4.31 15.83 C3.13 15.83, 1.96 15.83, 0 15.83 M4.31 15.83 C3.32 15.83, 2.33 15.83, 0 15.83 M0 15.83 C0 10.03, 0 4.23, 0 0 M0 15.83 C0 9.77, 0 3.72, 0 0" stroke="#ffffff" stroke-width="1" fill="none"></path></g><g transform="translate(769.0085547621497 484.14722037518857) rotate(0 67.46958840984053 13.17263392763553)"><text x="0" y="21.34526785527107" font-family="Helvetica, Segoe UI Emoji" font-size="23.132430311945335px" fill="#495057" text-anchor="start" style="white-space: pre;" direction="ltr">topjson client</text></g><g stroke-linecap="round" transform="translate(510.70018071764474 396.2728225018431) rotate(0 45.96646051770682 27.90003896748243)"><path d="M0 0 L91.93 0 L91.93 55.8 L0 55.8" stroke="none" stroke-width="0" fill="#12b886"></path><path d="M0 0 C19.85 0, 39.7 0, 91.93 0 M0 0 C34.92 0, 69.84 0, 91.93 0 M91.93 0 C91.93 11.82, 91.93 23.64, 91.93 55.8 M91.93 0 C91.93 22.01, 91.93 44.02, 91.93 55.8 M91.93 55.8 C60.44 55.8, 28.95 55.8, 0 55.8 M91.93 55.8 C55.55 55.8, 19.16 55.8, 0 55.8 M0 55.8 C0 39.47, 0 23.14, 0 0 M0 55.8 C0 40.51, 0 25.21, 0 0" stroke="#495057" stroke-width="1" fill="none"></path></g><g transform="translate(520.8082352334036 417.49513982802154) rotate(0 33.34283553970971 8.335708884927442)"><text x="33.34283553970972" y="13.671417769854859" font-family="Helvetica, Segoe UI Emoji" font-size="14.638318041823773px" fill="#ffff" text-anchor="middle" style="white-space: pre;" direction="ltr">GeoJSON</text></g></svg>