<svg version="1.1" xmlns="http://www.w3.org/2000/svg" viewBox="0 0 1278.5222222222217 636" width="1278.5222222222217" height="636">
  <!-- svg-source:excalidraw -->
  
  <defs>
    <style>
      @font-face {
        font-family: "Virgil";
        src: url("https://excalidraw.com/Virgil.woff2");
      }
      @font-face {
        font-family: "Cascadia";
        src: url("https://excalidraw.com/Cascadia.woff2");
      }
    </style>
  </defs>
  <rect x="0" y="0" width="1278.5222222222217" height="636" fill="#ffffff"></rect><g stroke-opacity="0.7" fill-opacity="0.7" stroke-linecap="round" transform="translate(10 10) rotate(0 629.2611111111108 308)"><path d="M0 0 C380.18 0, 760.36 0, 1258.52 0 M0 0 C295.35 0, 590.71 0, 1258.52 0 M1258.52 0 C1258.52 181.89, 1258.52 363.78, 1258.52 616 M1258.52 0 C1258.52 238.09, 1258.52 476.19, 1258.52 616 M1258.52 616 C785.34 616, 312.16 616, 0 616 M1258.52 616 C772.4 616, 286.28 616, 0 616 M0 616 C0 380.4, 0 144.79, 0 0 M0 616 C0 475.45, 0 334.89, 0 0" stroke="#343a40" stroke-width="1" fill="none"></path></g><g stroke-linecap="round" transform="translate(454.84758417187754 70.09231547137654) rotate(0 47.145008420714476 15.3903685605925)"><path d="M47.24 -1.99 L92.88 16.55 L48.1 29.76 L0.08 17.23" stroke="none" stroke-width="0" fill="#fd8888" fill-rule="evenodd"></path><path d="M48.89 -1.01 C62.91 7.28, 78.46 11.62, 93.98 14.65 M47.65 0.09 C59.97 2.75, 70.85 8.62, 94.78 15.03 M95.96 15.34 C78.74 18.98, 65.39 24.26, 48.78 31.11 M94.84 16.48 C79.85 20.12, 62.65 24.82, 48.39 31.31 M49.91 31.35 C36.96 26.5, 27.77 23.56, 1.36 15.78 M48.13 31.21 C28.81 24.77, 11.72 18.93, 0.12 15.24 M0.98 15.15 C10.18 12.3, 18.27 8.4, 46.13 -0.5 M-0.69 16.5 C13.56 11.62, 25.35 8.01, 48.68 -0.48" stroke="#c92a2a" stroke-width="1" fill="none"></path></g><g stroke-linecap="round" transform="translate(454.84758417187754 62.66630708698236) rotate(0 47.145008420714476 15.3903685605925)"><path d="M46.01 -1.41 L94.84 16.1 L46.98 30.86 L1.23 15.04" stroke="none" stroke-width="0" fill="#fd8888" fill-rule="evenodd"></path><path d="M46.99 -0.98 C66.49 4.44, 82.35 11.22, 92.94 15.1 M48.09 0.09 C63.5 4.99, 81.63 11.95, 93.32 16.16 M93.63 15.03 C77.78 21.51, 63.31 26.8, 48.33 31.49 M94.77 16.97 C75.69 21.29, 57.47 28.11, 48.53 29.84 M48.57 29.74 C27.91 25.15, 9.43 21.16, -0.22 17.69 M48.43 30.08 C31.85 26.59, 15.75 21.14, -0.76 15.02 M-0.85 16.49 C14.57 9.69, 28.79 3.97, 47.5 -0.61 M0.5 16.77 C19.09 9.6, 38.87 4.3, 47.52 -0.38" stroke="#c92a2a" stroke-width="1" fill="none"></path></g><g stroke-linecap="round" transform="translate(454.84758417187754 52.09406090770477) rotate(0 47.145008420714476 15.3903685605925)"><path d="M46.59 0.55 L94.39 14.98 L48.08 32.01 L-0.96 16.16" stroke="none" stroke-width="0" fill="#fd8888" fill-rule="evenodd"></path><path d="M47.02 1.6 C58.51 4.75, 71.08 6.94, 93.39 17.06 M48.09 -0.97 C64.58 6.82, 83.36 11.07, 94.45 16.26 M93.32 14.7 C84.71 18.35, 75.19 22.56, 48.71 32.54 M95.26 15.46 C82.85 18.88, 73.12 23.66, 47.05 31.65 M46.96 29.33 C30.98 24.48, 16.21 20.54, 1.69 16.64 M47.3 30.55 C35.25 26.48, 21.31 21.98, -0.98 16.1 M0.49 15.75 C15.42 9.75, 31.27 4.63, 47.39 1.95 M0.77 16.04 C15.2 11.35, 31.71 4.97, 47.62 -0.99" stroke="#c92a2a" stroke-width="1" fill="none"></path></g><g stroke-linecap="round" transform="translate(454.84758417187754 41.604587058856) rotate(0 47.145008420714476 15.3903685605925)"><path d="M48.55 0.1 L93.27 16.08 L49.23 29.82 L0.16 14.38" stroke="none" stroke-width="0" fill="#fd8888" fill-rule="evenodd"></path><path d="M49.6 -1.22 C64.34 5.43, 78.44 10.34, 95.35 17.54 M47.03 -0.82 C61.11 4.69, 71.58 8.6, 94.55 15.16 M92.99 16.3 C75.8 22.23, 59.06 27.82, 49.76 29.46 M93.75 15.3 C77.13 22.08, 62.02 26, 48.87 31.22 M46.55 30.41 C27.63 26.05, 9.8 20.53, 0.64 15.58 M47.77 31.44 C32.55 25.94, 17.18 20.23, 0.1 16.46 M-0.25 14.89 C15.9 8.43, 33.07 4.11, 49.95 0.44 M0.04 15.63 C11.75 12.62, 21.61 7.86, 47.01 -0.7" stroke="#c92a2a" stroke-width="1" fill="none"></path></g><g stroke-opacity="0.7" fill-opacity="0.7" transform="translate(460.9144058885381 121.67624242180646) rotate(0 73.07570977917976 11.406940063091488)"><text x="0" y="17.813880126182976" font-family="Helvetica, Segoe UI Emoji" font-size="19.962145110410077px" fill="#000000" text-anchor="start" style="white-space: pre;" direction="ltr">http://geojson.io/</text></g><g stroke-opacity="0.7" fill-opacity="0.7" transform="translate(457.3497371188216 153.04532759530792) rotate(0 103.7318611987381 8.476144300285993)"><text x="0" y="13.952288600571986" font-family="Helvetica, Segoe UI Emoji" font-size="14.530533086204555px" fill="#c92a2a" text-anchor="start" style="white-space: pre;" direction="ltr">For creating your own geoJSON</text></g><g stroke-opacity="0.7" fill-opacity="0.7" stroke-linecap="round" transform="translate(450.93333333333317 108.4869679738569) rotate(0 113 33.86435331230283)"><path d="M0 0 C80.33 0, 160.65 0, 226 0 M0 0 C69.51 0, 139.02 0, 226 0 M226 0 C226 15.26, 226 30.52, 226 67.73 M226 0 C226 23.39, 226 46.77, 226 67.73 M226 67.73 C170.01 67.73, 114.02 67.73, 0 67.73 M226 67.73 C135.76 67.73, 45.53 67.73, 0 67.73 M0 67.73 C0 51.31, 0 34.89, 0 0 M0 67.73 C0 49.3, 0 30.88, 0 0" stroke="#343a40" stroke-width="1" fill="none"></path></g><g stroke-linecap="round" transform="translate(893.718214516467 66.9214783357414) rotate(0 49.46285544238185 16.147023848723876)"><path d="M50.69 -1.54 L99.61 15.94 L51.96 30.93 L-1.31 16.26" stroke="none" stroke-width="0" fill="#228be6" fill-rule="evenodd"></path><path d="M50.31 1.59 C65.14 7.2, 83.4 13.59, 99.65 18.75 M49.73 -0.61 C64.53 3.7, 79.35 10.04, 99.59 16.18 M97.77 17.76 C77.78 23.58, 59.74 30.24, 48.81 33.6 M99.25 16.31 C84.61 20.44, 72.3 25.27, 50.44 32.42 M51.57 32.8 C37.62 30.56, 22.72 23.66, -1.53 18.59 M49.89 32.06 C37.31 28.97, 24.57 24.38, 0.62 16.32 M1.21 16.94 C16.68 10.2, 35 3.32, 51.32 0.52 M-0.39 16.43 C17.51 10.12, 37.29 3.5, 49.76 0.79" stroke="#1864ab" stroke-width="1" fill="none"></path></g><g stroke-linecap="round" transform="translate(893.718214516467 59.13037612713859) rotate(0 49.46285544238185 16.147023848723876)"><path d="M48.46 0.68 L97.86 18.96 L48.63 30.98 L-0.74 15.1" stroke="none" stroke-width="0" fill="#228be6" fill-rule="evenodd"></path><path d="M51.59 -1.63 C69.3 6.27, 88.2 13.36, 100.67 16.98 M49.39 -0.01 C61.06 4.44, 74.21 9.06, 98.11 17.93 M99.69 15.17 C86.78 20.04, 74.79 23.42, 51.31 31.84 M98.24 16.4 C87.85 21.03, 78.16 24.02, 50.12 32.02 M50.5 33.61 C34.32 27.35, 14.05 20.42, 1.59 16 M49.76 32.08 C36.52 27.33, 21.19 23.95, -0.68 17.71 M-0.06 15.29 C19.4 8.04, 38.58 4.58, 50.52 1.33 M-0.57 16.08 C11.55 13.61, 23.28 8.72, 50.79 0.34" stroke="#1864ab" stroke-width="1" fill="none"></path></g><g stroke-linecap="round" transform="translate(893.718214516467 48.038353832852664) rotate(0 49.46285544238185 16.147023848723876)"><path d="M50.68 -1.06 L100.89 15.63 L48.69 31.55 L-1.9 18.27" stroke="none" stroke-width="0" fill="#228be6" fill-rule="evenodd"></path><path d="M48.37 1.12 C61.64 5.37, 73.98 9.43, 98.91 15.86 M49.99 -0.98 C68.88 7.09, 88.13 12.52, 99.86 16.58 M97.1 17.44 C82.28 23.25, 65.78 28.46, 49.55 30.49 M98.33 16.2 C84.92 21.05, 69.98 25.99, 49.72 32.8 M51.31 34.29 C30.58 25.77, 9.69 22.19, -1 16.83 M49.79 33.24 C39.06 29.14, 29.63 25.07, 0.71 17.95 M-1.71 16.72 C15.07 10.34, 35.43 5.9, 51.33 -1.15 M-0.92 16.47 C16.8 10.86, 32.22 7.06, 50.34 -0.77" stroke="#1864ab" stroke-width="1" fill="none"></path></g><g stroke-linecap="round" transform="translate(893.718214516467 37.033173305102565) rotate(0 49.46285544238185 16.147023848723876)"><path d="M48.94 1.96 L97.56 15.69 L49.26 30.4 L1.27 18.91" stroke="none" stroke-width="0" fill="#228be6" fill-rule="evenodd"></path><path d="M51.12 -0.01 C67.3 6.49, 82.77 11.11, 97.79 18.67 M49.02 0.17 C63.5 5.3, 75.74 10.21, 98.51 17.26 M99.36 16.38 C88.21 19.07, 76.59 23.51, 48.2 32.31 M98.12 17.66 C82.32 22.23, 66.37 26.61, 50.51 33.16 M51.99 32.32 C30.31 25.31, 13.72 20.05, -0.17 15.2 M50.95 31.84 C35.78 28.4, 20.49 24.07, 0.95 17.42 M-0.28 15.06 C17.19 12.61, 36.6 6.5, 48.85 0.48 M-0.53 17.54 C12.21 12.79, 26.96 8.94, 49.23 0.34" stroke="#1864ab" stroke-width="1" fill="none"></path></g><g stroke-opacity="0.7" fill-opacity="0.7" transform="translate(897.6019628461258 120.38368162640967) rotate(0 162.3654320987655 12.421399176954736)"><text x="0" y="19.842798353909473" font-family="Helvetica, Segoe UI Emoji" font-size="21.159481247809378px" fill="#000000" text-anchor="start" style="white-space: pre;" direction="ltr">https://mygeodata.cloud/converter/</text></g><g stroke-opacity="0.7" fill-opacity="0.7" transform="translate(893.8234840518728 153.63429501582453) rotate(0 161.27222222222224 8.983333333333341)"><text x="0" y="13.966666666666683" font-family="Helvetica, Segoe UI Emoji" font-size="15.402079318513783px" fill="#1864ab" text-anchor="start" style="white-space: pre;" direction="ltr">To convert geo spatial data into various formats</text></g><g stroke-opacity="0.7" fill-opacity="0.7" stroke-linecap="round" transform="translate(887.0222222222235 106.40331008767862) rotate(0 167.68888888888898 35.89554854539084)"><path d="M0 0 C119.31 0, 238.63 0, 335.38 0 M0 0 C67.76 0, 135.52 0, 335.38 0 M335.38 0 C335.38 23.11, 335.38 46.22, 335.38 71.79 M335.38 0 C335.38 15.77, 335.38 31.54, 335.38 71.79 M335.38 71.79 C201.31 71.79, 67.25 71.79, 0 71.79 M335.38 71.79 C202.93 71.79, 70.49 71.79, 0 71.79 M0 71.79 C0 51.26, 0 30.73, 0 0 M0 71.79 C0 54.05, 0 36.31, 0 0" stroke="#343a40" stroke-width="1" fill="none"></path></g><g stroke-linecap="round" transform="translate(50.06265896091111 266.1854658717377) rotate(0 49.46285544238185 16.147023848723883)"><path d="M49.3 -1.99 L98.91 16.51 L51.27 33.5 L-0.87 16.53" stroke="none" stroke-width="0" fill="#40c057" fill-rule="evenodd"></path><path d="M48.62 -0.39 C58.88 3.7, 69.53 6.37, 98.21 18.55 M49.23 0.89 C60.61 4.12, 72.64 7, 98.07 16.44 M100.65 17.82 C83.17 20.67, 71.16 27.56, 51.01 33.6 M99.42 17.22 C87.84 19.89, 76.44 23.19, 49.49 31.44 M50.71 30.32 C35.26 28.17, 16.43 24.01, -0.76 15.32 M49.68 31.9 C39.78 28.55, 27.32 24.66, -0.72 17.24 M-1.04 16.15 C12.91 11.85, 26.61 9.76, 49.05 0.13 M0.12 16.97 C15 10.9, 30.22 6.05, 50.74 -0.38" stroke="#2b8a3e" stroke-width="1" fill="none"></path></g><g stroke-linecap="round" transform="translate(50.06265896091111 258.39436366313527) rotate(0 49.46285544238185 16.147023848723883)"><path d="M48.01 -0.02 L98.43 18.27 L51.2 31.42 L-0.47 17.38" stroke="none" stroke-width="0" fill="#40c057" fill-rule="evenodd"></path><path d="M49.61 -1.15 C63.4 4.58, 76.4 9.23, 100.47 15.5 M50.89 -0.45 C66.49 6.6, 81.82 10.82, 98.36 16.96 M99.74 15.62 C79.59 24.32, 63.43 30, 51.31 30.74 M99.15 16.84 C85.19 20.74, 71.75 25.07, 49.15 32.49 M48.02 33.51 C35.59 26.38, 21.73 22.79, -1.68 15.39 M49.6 33.1 C33.35 26.39, 16.3 21.31, 0.24 16.52 M-0.85 17.47 C17.91 12.44, 38.94 3.5, 50.13 0.19 M-0.03 16.47 C12.46 11.64, 26.11 8.68, 49.62 -0.35" stroke="#2b8a3e" stroke-width="1" fill="none"></path></g><g stroke-linecap="round" transform="translate(50.06265896091111 247.30234136884917) rotate(0 49.46285544238185 16.147023848723883)"><path d="M49.98 -0.49 L100.2 18.2 L49.13 31.83 L0.38 16.26" stroke="none" stroke-width="0" fill="#40c057" fill-rule="evenodd"></path><path d="M48.85 -0.26 C59.33 2.49, 69.18 8.6, 97.42 17.65 M49.55 0.24 C64.58 3.77, 77.28 8.83, 98.89 17.78 M97.55 16.18 C85.85 23.2, 71.43 27.46, 48.45 31.75 M98.77 16.66 C85.4 20.71, 72.64 24.34, 50.2 32.21 M51.22 32.6 C28.79 26.87, 10.15 18.18, -1.61 17.61 M50.8 32.11 C36.4 27.42, 23.41 24.41, -0.48 17.77 M0.47 16.06 C16.03 13.58, 27.85 7.58, 50.19 -0.7 M-0.53 16.24 C14.89 11.32, 32.14 5.95, 49.65 -0.99" stroke="#2b8a3e" stroke-width="1" fill="none"></path></g><g stroke-linecap="round" transform="translate(50.06265896091111 236.29716084109901) rotate(0 49.46285544238185 16.147023848723876)"><path d="M49.51 1.27 L100.13 16.13 L49.53 32.67 L-0.74 16.32" stroke="none" stroke-width="0" fill="#40c057" fill-rule="evenodd"></path><path d="M49.74 -0.56 C60.18 3.49, 74.1 6.62, 99.58 16.78 M50.24 0.58 C60.38 3.16, 71.46 7.78, 99.71 16.93 M98.1 18.11 C81.62 23.58, 62.52 26.92, 49.45 31.58 M98.58 16.32 C81.42 21.76, 63.9 27.81, 49.92 33.2 M50.31 30.66 C34.42 26.71, 14.93 20.73, 0.61 16.18 M49.82 31.61 C35.96 27.88, 23.53 24.02, 0.77 16.87 M-0.94 18.58 C13.73 11.72, 25 8.64, 49.3 0.28 M-0.76 16.21 C15.27 12.7, 30.86 6.3, 49.01 -0.01" stroke="#2b8a3e" stroke-width="1" fill="none"></path></g><g stroke-opacity="0.7" fill-opacity="0.7" transform="translate(55.65751840168127 322.21433582907264) rotate(0 108.22777777777776 11.977777777777789)"><text x="0" y="18.95555555555558" font-family="Helvetica, Segoe UI Emoji" font-size="21.15948124780932px" fill="#000000" text-anchor="start" style="white-space: pre;" direction="ltr">https://geojsonlint.com/</text></g><g stroke-opacity="0.7" fill-opacity="0.7" transform="translate(51.87903960743006 355.46494921848716) rotate(0 104.8055555555556 8.983333333333348)"><text x="0" y="13.966666666666683" font-family="Helvetica, Segoe UI Emoji" font-size="15.402079318513787px" fill="#2b8a3e" text-anchor="start" style="white-space: pre;" direction="ltr">To validate and view geoJSON</text></g><g stroke-opacity="0.7" fill-opacity="0.7" stroke-linecap="round" transform="translate(45.077777777777555 308.23396429034165) rotate(0 167.68888888888898 35.89554854539084)"><path d="M0 0 C96.27 0, 192.54 0, 335.38 0 M0 0 C108.8 0, 217.59 0, 335.38 0 M335.38 0 C335.38 18.58, 335.38 37.17, 335.38 71.79 M335.38 0 C335.38 19.09, 335.38 38.18, 335.38 71.79 M335.38 71.79 C229.57 71.79, 123.76 71.79, 0 71.79 M335.38 71.79 C240.95 71.79, 146.51 71.79, 0 71.79 M0 71.79 C0 53.64, 0 35.48, 0 0 M0 71.79 C0 55.74, 0 39.69, 0 0" stroke="#343a40" stroke-width="1" fill="none"></path></g><g stroke-linecap="round" transform="translate(467.5737700720224 451.4132436495154) rotate(0 49.46285544238185 16.147023848723876)"><path d="M51.47 -0.74 L98.9 16.27 L51.74 32.34 L0.3 17.91" stroke="none" stroke-width="0" fill="#7950f2" fill-rule="evenodd"></path><path d="M51.31 1.85 C60.82 3.34, 69.08 8.02, 97.8 15.06 M50.37 -0.13 C67.81 7.03, 85.53 13.16, 98.92 17.71 M100.39 17.46 C83.34 22.59, 70.3 24.06, 49.57 33.02 M98.58 17.91 C81.66 22.71, 64.94 28.73, 49.07 31.33 M49.11 31.87 C38.55 30.06, 27.79 24.23, -0.56 15.28 M50.2 32.08 C30.36 26.87, 13.09 19.94, -0.05 17.94 M-0.03 16.48 C10.78 14.44, 22.16 10.61, 48.74 -0.22 M0.49 16.47 C18.79 11.11, 38.2 4.81, 50.54 -0.23" stroke="#5f3dc4" stroke-width="1" fill="none"></path></g><g stroke-linecap="round" transform="translate(467.5737700720224 443.62214144091314) rotate(0 49.46285544238185 16.147023848723876)"><path d="M49.26 -0.03 L98.19 18.74 L50.05 32.59 L0.91 15.15" stroke="none" stroke-width="0" fill="#7950f2" fill-rule="evenodd"></path><path d="M51.85 0.56 C68.21 4.73, 87.66 11.26, 96.99 18.34 M49.87 0.01 C61.7 3.3, 72.26 7.22, 99.64 16.9 M99.38 15.56 C84.07 22.06, 65.09 26.94, 50.72 33.36 M99.84 17.08 C85.83 21.63, 73.16 24.2, 49.04 31.7 M49.58 32.77 C38.69 29.97, 24.04 23.87, -1.72 18.55 M49.79 31.58 C33.95 28.34, 16.62 22.45, 0.94 16.15 M-0.52 17.08 C17.36 12.12, 33.67 4.54, 49.78 1.48 M-0.53 16.96 C11.79 13.58, 23.15 9.6, 49.77 0.74" stroke="#5f3dc4" stroke-width="1" fill="none"></path></g><g stroke-linecap="round" transform="translate(467.5737700720224 432.53011914662727) rotate(0 49.46285544238185 16.147023848723876)"><path d="M49.97 -0.73 L100.67 17.05 L50.3 33.2 L-1.85 18.38" stroke="none" stroke-width="0" fill="#7950f2" fill-rule="evenodd"></path><path d="M50.56 -0.11 C64.24 5.96, 79.84 8.33, 100.26 15.36 M50.01 0.98 C66.43 6.71, 83.24 12.3, 98.82 17.27 M97.48 18.17 C84.22 19.86, 69.58 26.91, 51.07 31.72 M99 17.14 C83.19 23.3, 65.28 26.69, 49.4 31.79 M50.48 33.53 C34.81 26.08, 15.55 20.08, 1.55 17.47 M49.28 32.47 C34.13 26.1, 16.44 22.88, -0.85 17.3 M0.08 17.76 C12.37 13.75, 22.04 8.99, 51.48 -1.48 M-0.04 17.49 C15.82 12.63, 30.93 6.68, 50.74 -0.37" stroke="#5f3dc4" stroke-width="1" fill="none"></path></g><g stroke-linecap="round" transform="translate(467.5737700720224 421.5249386188769) rotate(0 49.46285544238185 16.147023848723876)"><path d="M49.27 1.74 L98.97 17.3 L50.91 30.45 L1.38 16.41" stroke="none" stroke-width="0" fill="#7950f2" fill-rule="evenodd"></path><path d="M49.89 -1.3 C69.09 4.95, 83.97 13.62, 97.28 17.78 M50.98 -0.22 C67.36 5.73, 83.69 11.36, 99.2 16.97 M100.09 16.7 C78.92 21.92, 63.18 29.13, 49.43 32.97 M99.06 17.65 C86.85 20.16, 72.17 24.55, 49.5 32.69 M51.24 34.02 C36.34 27.94, 22.75 26.15, 0.47 17.7 M50.18 33.19 C33.05 26.98, 18.94 21.29, 0.3 16.33 M0.76 17.72 C15.56 10.65, 29.68 8.31, 48.52 0.09 M0.49 17.67 C18.09 11.62, 34.77 5.89, 49.63 -0.01" stroke="#5f3dc4" stroke-width="1" fill="none"></path></g><g stroke-opacity="0.7" fill-opacity="0.7" transform="translate(474.02418506834897 507.44211360685074) rotate(0 100.95555555555552 11.977777777777789)"><text x="0" y="18.95555555555558" font-family="Helvetica, Segoe UI Emoji" font-size="21.159481247809314px" fill="#000000" text-anchor="start" style="white-space: pre;" direction="ltr">http://map-icons.com/</text></g><g stroke-opacity="0.7" fill-opacity="0.7" transform="translate(470.24570627409616 540.692726996266) rotate(0 99.24444444444441 8.983333333333348)"><text x="0" y="13.966666666666683" font-family="Helvetica, Segoe UI Emoji" font-size="15.402079318513785px" fill="#5f3dc4" text-anchor="start" style="white-space: pre;" direction="ltr">Common icons used in maps</text></g><g stroke-opacity="0.7" fill-opacity="0.7" stroke-linecap="round" transform="translate(463.4444444444441 493.4617420681195) rotate(0 167.68888888888898 35.89554854539085)"><path d="M0 0 C98.77 0, 197.55 0, 335.38 0 M0 0 C133.58 0, 267.16 0, 335.38 0 M335.38 0 C335.38 25.73, 335.38 51.47, 335.38 71.79 M335.38 0 C335.38 22.51, 335.38 45.03, 335.38 71.79 M335.38 71.79 C213.97 71.79, 92.57 71.79, 0 71.79 M335.38 71.79 C228.7 71.79, 122.02 71.79, 0 71.79 M0 71.79 C0 47.53, 0 23.27, 0 0 M0 71.79 C0 46.74, 0 21.68, 0 0" stroke="#343a40" stroke-width="1" fill="none"></path></g><g stroke-linecap="round" transform="translate(54.34043673868837 455.69102142729326) rotate(0 49.46285544238185 16.147023848723876)"><path d="M51.77 -0.73 L99 15.39 L51.83 30.86 L1.15 18.14" stroke="none" stroke-width="0" fill="#000000" fill-rule="evenodd"></path><path d="M48.63 -1.08 C64.6 5.46, 80.6 10.97, 98.34 16.34 M50.64 -0.17 C68.5 6.3, 87.42 12.72, 99.51 16.02 M98.27 16.08 C82.35 20.66, 68.23 28, 51.18 32.01 M98.37 17.84 C83.72 22.15, 68.02 25.36, 50.27 31.63 M51.18 31.8 C37.55 28.22, 25.54 26, -0.09 16.87 M49.7 31.65 C38.08 30.07, 26.47 25.33, 0.1 17.26 M-1.96 16.45 C17.91 8.7, 37.08 3.52, 51.5 0.73 M-0.25 16.78 C9.43 13.35, 21.52 10.25, 49.2 -0.94" stroke="#495057" stroke-width="1" fill="none"></path></g><g stroke-linecap="round" transform="translate(54.34043673868837 447.8999192186909) rotate(0 49.46285544238185 16.147023848723876)"><path d="M49.27 0.07 L97.31 18.83 L48.56 33.44 L1.14 16.07" stroke="none" stroke-width="0" fill="#000000" fill-rule="evenodd"></path><path d="M48.92 -0.32 C62.86 5.32, 75.58 8.38, 98.27 18.69 M49.83 -0.42 C67.75 5.4, 84.99 12.34, 97.94 17.01 M98.01 15.11 C81.47 20.7, 67.83 28.26, 49.72 32.56 M99.76 16.98 C80.03 22.45, 58.91 29.21, 49.34 31.76 M49.5 32.15 C36.56 28.55, 24.34 24.07, -0.13 15.51 M49.35 31.79 C31.23 25.39, 10.56 20.38, 0.26 17.81 M-0.55 15.93 C16.03 10.42, 35.28 6.79, 50.73 -1.89 M-0.22 16 C10.51 14.42, 21.27 9.27, 49.06 0.88" stroke="#495057" stroke-width="1" fill="none"></path></g><g stroke-linecap="round" transform="translate(54.34043673868837 436.80789692440476) rotate(0 49.46285544238185 16.147023848723876)"><path d="M50.07 -1.61 L100.76 15.56 L51.15 33.44 L-0.93 15.32" stroke="none" stroke-width="0" fill="#000000" fill-rule="evenodd"></path><path d="M49.68 0.39 C66.66 6.55, 81.52 10.8, 100.62 18.1 M49.58 0.22 C69.12 6.91, 89.37 12.54, 98.94 17.35 M97.04 15.87 C81.06 23.55, 66.96 26.84, 50.27 34.28 M98.9 17.77 C87.94 19.89, 78.09 23.32, 49.47 32.05 M49.85 32.48 C39.94 30.8, 29.51 25.83, -1.49 18.76 M49.5 33.06 C29.61 25.45, 10.93 20.23, 0.81 17.59 M-1.07 15.04 C12.76 11.87, 28.79 8.65, 48.11 -1.85 M-1 17.3 C20.47 11.14, 38.47 2.83, 50.88 -0.36" stroke="#495057" stroke-width="1" fill="none"></path></g><g stroke-linecap="round" transform="translate(54.34043673868837 425.8027163966546) rotate(0 49.46285544238185 16.147023848723876)"><path d="M48.39 1.83 L97.49 18.15 L51.14 31.37 L-1.68 18.01" stroke="none" stroke-width="0" fill="#000000" fill-rule="evenodd"></path><path d="M50.39 0.67 C61.92 3.43, 71.9 9.65, 100.02 18.9 M50.22 -0.32 C67.88 6.98, 84.59 12.59, 99.27 17.38 M97.79 15.74 C87.38 21.81, 72.42 24.98, 51.99 30.59 M99.7 16.61 C86.3 20.99, 74.51 23.92, 49.75 31.32 M50.18 32.47 C33.83 26.67, 14.02 19.79, 1.76 18.84 M50.76 31.47 C36.09 28.02, 23.38 24.61, 0.59 16.71 M-1.96 16.04 C9.5 15.34, 20.99 8.5, 48.15 1.85 M0.3 17.82 C14.47 12.02, 26.56 9.04, 49.64 0.04" stroke="#495057" stroke-width="1" fill="none"></path></g><g stroke-opacity="0.7" fill-opacity="0.7" transform="translate(61.11472134595044 509.95017529629985) rotate(0 160.2202380952382 8.496527777777771)"><text x="0" y="13.993055555555568" font-family="Helvetica, Segoe UI Emoji" font-size="15.009638976515946px" fill="#000000" text-anchor="start" style="white-space: pre;" direction="ltr">https://mapster.me/right-hand-rule-geojson-fixer/</text></g><g stroke-opacity="0.7" fill-opacity="0.7" transform="translate(57.220574833507385 544.2186646057994) rotate(0 162.8261904761904 8.634722222222223)"><text x="0" y="14.269444444444467" font-family="Helvetica, Segoe UI Emoji" font-size="14.804379579962918px" fill="#495057" text-anchor="start" style="white-space: pre;" direction="ltr">Corrects geoJSON according to new specification</text></g><g stroke-opacity="0.7" fill-opacity="0.7" stroke-linecap="round" transform="translate(50.21111111111145 495.5418332002609) rotate(0 172.8222222222223 36.994391868208936)"><path d="M0 0 C110.42 0, 220.84 0, 345.64 0 M0 0 C111.44 0, 222.87 0, 345.64 0 M345.64 0 C345.64 18, 345.64 36, 345.64 73.99 M345.64 0 C345.64 27.89, 345.64 55.78, 345.64 73.99 M345.64 73.99 C238.76 73.99, 131.88 73.99, 0 73.99 M345.64 73.99 C215.54 73.99, 85.43 73.99, 0 73.99 M0 73.99 C0 59.04, 0 44.09, 0 0 M0 73.99 C0 49.56, 0 25.13, 0 0" stroke="#343a40" stroke-width="1" fill="none"></path></g><g stroke-linecap="round" transform="translate(462.4404367386885 260.6243547606266) rotate(0 49.46285544238185 16.147023848723876)"><path d="M50.75 1.52 L100.73 16.62 L49.58 31.26 L-0.15 17.41" stroke="none" stroke-width="0" fill="#15aabf" fill-rule="evenodd"></path><path d="M50.26 -1 C67.79 5.69, 82.41 10.39, 100.9 17.24 M50.99 -0.71 C69.93 6.56, 89.24 13.28, 98.46 17.25 M97.78 15.71 C80.2 23.09, 62.57 29.34, 49 31.08 M99.35 16.46 C85.12 21.73, 72.45 24.97, 50.99 32.74 M50.1 33.55 C40.23 28.97, 27.47 25.87, -1.47 18.14 M49.69 32.26 C36.14 29.19, 24.13 25.29, -0.14 16.31 M1.02 15.37 C13.12 13.81, 27.72 8.34, 49.61 0.3 M0.73 17.94 C19.32 11.46, 38.05 4.52, 49.76 -0.91" stroke="#1864ab" stroke-width="1" fill="none"></path></g><g stroke-linecap="round" transform="translate(462.4404367386885 252.83325255202396) rotate(0 49.46285544238185 16.147023848723883)"><path d="M51.52 1.8 L98.54 16.58 L48.97 32.14 L0.41 18.85" stroke="none" stroke-width="0" fill="#15aabf" fill-rule="evenodd"></path><path d="M49 1.58 C67.31 6.12, 83.93 14.09, 99.17 18.98 M49.29 0.5 C62.06 3.98, 74.01 7.4, 99.17 17.6 M97.63 15.81 C82.48 20.9, 65.96 26.51, 48.79 31.64 M98.38 16.26 C84.04 21.69, 67.81 27.81, 50.45 31.43 M51.26 33.3 C31.58 25.84, 14.02 20, 1.14 16.19 M49.97 31.44 C34.66 27.36, 18.74 22.2, -0.69 16.71 M-1.63 16.74 C20.81 10.89, 39.53 3.03, 50.3 1.49 M0.94 17.73 C20.06 10.77, 38.86 3.22, 49.09 0.37" stroke="#1864ab" stroke-width="1" fill="none"></path></g><g stroke-linecap="round" transform="translate(462.4404367386885 241.74123025773798) rotate(0 49.46285544238185 16.147023848723876)"><path d="M51.8 -0.38 L98.51 15.97 L49.85 32.7 L1.85 17.47" stroke="none" stroke-width="0" fill="#15aabf" fill-rule="evenodd"></path><path d="M51.58 -0.14 C62.42 3.48, 76.61 9.04, 100.91 15.91 M50.5 -0.02 C67.17 6.08, 83.13 12.21, 99.53 17.53 M97.73 17.92 C86.26 21.89, 75.11 22.58, 49.35 32.58 M98.19 17.43 C81.94 21.55, 66.52 27.64, 49.14 32.84 M51 31.75 C29.02 26.14, 8.69 21.57, -0.81 17.4 M49.15 33.01 C33.7 28.03, 16.98 21.51, -0.29 17.92 M-0.26 18.1 C12.52 13.61, 23.13 9.68, 51.49 1.75 M0.73 17.61 C13.4 12.22, 25.24 6.92, 50.37 0.76" stroke="#1864ab" stroke-width="1" fill="none"></path></g><g stroke-linecap="round" transform="translate(462.4404367386885 230.7360497299879) rotate(0 49.46285544238185 16.147023848723876)"><path d="M49.62 -0.42 L97.9 16.85 L50.41 34.14 L0.47 15.91" stroke="none" stroke-width="0" fill="#15aabf" fill-rule="evenodd"></path><path d="M49.86 0.09 C64.19 6.91, 80.81 12.24, 97.83 17.83 M49.98 0.29 C69.34 6.08, 89.21 13.94, 99.45 16.32 M99.84 15.79 C88.61 19.42, 73.87 23.48, 50.29 33.13 M99.36 16.68 C81.68 22.87, 65.79 26.25, 50.55 33.28 M49.46 31.24 C34.27 26.4, 20.53 22.4, 0.4 17.59 M50.72 32.41 C37.34 27.61, 22.4 23.34, 0.92 16.36 M1.1 17.81 C17.9 10.72, 35.52 6.63, 51.75 -0.88 M0.61 17.72 C18.55 10.05, 36.29 4.31, 50.76 0.9" stroke="#1864ab" stroke-width="1" fill="none"></path></g><g stroke-opacity="0.7" fill-opacity="0.7" transform="translate(464.4650192779525 348.2964423835769) rotate(0 164.10370370370356 8.127777777777766)"><text x="0" y="13.255555555555546" font-family="Helvetica, Segoe UI Emoji" font-size="13.3944386675855px" fill="#0b7285" text-anchor="start" style="white-space: pre;" direction="ltr">For adding images on top of map and extract geoJSON</text></g><g stroke-opacity="0.7" fill-opacity="0.7" transform="translate(468.3591657903942 313.17239751852236) rotate(0 145.01666666666677 11.942549019607824)"><text x="0" y="18.885098039215652" font-family="Helvetica, Segoe UI Emoji" font-size="19.953990639368257px" fill="#000000" text-anchor="start" style="white-space: pre;" direction="ltr">https://mapster.me/map-digitizer/</text></g><g stroke-opacity="0.7" fill-opacity="0.7" stroke-linecap="round" transform="translate(457.45555555555643 299.6196109780386) rotate(0 172.8222222222223 36.994391868208936)"><path d="M0 0 C101.26 0, 202.51 0, 345.64 0 M0 0 C103.11 0, 206.22 0, 345.64 0 M345.64 0 C345.64 25.59, 345.64 51.18, 345.64 73.99 M345.64 0 C345.64 25.38, 345.64 50.75, 345.64 73.99 M345.64 73.99 C251.28 73.99, 156.92 73.99, 0 73.99 M345.64 73.99 C217.23 73.99, 88.82 73.99, 0 73.99 M0 73.99 C0 47.74, 0 21.49, 0 0 M0 73.99 C0 47.28, 0 20.57, 0 0" stroke="#343a40" stroke-width="1" fill="none"></path></g><g stroke-linecap="round" transform="translate(892.7848811831318 256.77435476062675) rotate(0 49.46285544238185 16.147023848723876)"><path d="M48.7 -0.12 L97.77 15.91 L50.86 33.3 L-1.05 16.81" stroke="none" stroke-width="0" fill="#e64980" fill-rule="evenodd"></path><path d="M48.17 1.87 C61.72 4.68, 73.07 6.41, 98.45 18.27 M50.23 0.79 C66.81 6.35, 84.95 12.44, 98.81 17.16 M98.28 16.15 C78.76 25.04, 59.57 27.24, 49.68 32.07 M99.65 16.24 C81.6 22.11, 63.18 27.85, 49.47 31.34 M50.85 34.27 C38.33 29.81, 25.38 22.55, 1.26 18.76 M50.97 31.67 C34.61 27.98, 18.97 22.74, 0.13 16.07 M-1.68 16.66 C13.26 12.75, 21.95 10.16, 50.47 -0.67 M0.97 16.14 C11.74 13.69, 23.56 8.61, 50.29 -0.43" stroke="#a61e4d" stroke-width="1" fill="none"></path></g><g stroke-linecap="round" transform="translate(892.7848811831318 248.98325255202406) rotate(0 49.46285544238185 16.147023848723876)"><path d="M49.88 -1.15 L97.83 17.86 L51.01 31.25 L-0.19 15.32" stroke="none" stroke-width="0" fill="#e64980" fill-rule="evenodd"></path><path d="M51.87 1.05 C63.93 6.6, 74.81 8.93, 100.2 18.14 M50.79 -0.82 C70.17 6.46, 89.57 13.24, 99.08 17.88 M98.08 15.78 C85.89 20.06, 67.23 25.85, 49.77 33.65 M98.17 17.78 C88.05 21.03, 77.53 23.47, 49.05 31.85 M51.97 33.36 C38.33 29.34, 21.69 25.63, 1.76 17.38 M49.38 32.89 C34.52 28.69, 17.87 22.93, -0.93 16.34 M-0.34 18.61 C16.53 10.39, 34.48 6.62, 49.33 -1.15 M-0.86 16.49 C12.03 11.83, 22.42 9.09, 49.57 -0.65" stroke="#a61e4d" stroke-width="1" fill="none"></path></g><g stroke-linecap="round" transform="translate(892.7848811831318 237.89123025773802) rotate(0 49.46285544238185 16.147023848723876)"><path d="M48.85 -1.09 L99.78 18.01 L48.95 32.1 L-1.68 16.14" stroke="none" stroke-width="0" fill="#e64980" fill-rule="evenodd"></path><path d="M51.05 1.02 C66.84 3.88, 80.01 11.46, 100.07 18.92 M49.18 0.66 C68.35 6.71, 86.86 12.6, 99.8 17.05 M97.71 18.8 C79.58 20.44, 62.85 27.73, 51.35 30.64 M99.71 16.89 C88.69 19.98, 77.11 22.36, 49.56 31.95 M51.06 33.87 C37.32 26.88, 24.17 26.28, 0.38 17.52 M50.59 33.05 C37.74 28.41, 23.96 23.1, -0.66 17.31 M1.61 17.09 C17.29 12.25, 37.71 3.8, 48.85 -1.46 M-0.51 17.62 C12.08 12.66, 26.28 8.11, 49.35 -0.06" stroke="#a61e4d" stroke-width="1" fill="none"></path></g><g stroke-linecap="round" transform="translate(892.7848811831318 226.88604972998792) rotate(0 49.46285544238185 16.147023848723876)"><path d="M48.91 0.86 L99.93 15.95 L49.81 30.61 L-0.86 16.76" stroke="none" stroke-width="0" fill="#e64980" fill-rule="evenodd"></path><path d="M51.02 1.68 C59.38 2.81, 71.84 7.98, 100.85 18.55 M50.66 -0.16 C66.61 5.77, 81.88 12.25, 98.98 17.65 M100.72 15.56 C83.83 20.47, 72.44 26.24, 48.35 30.67 M98.81 17.35 C80.61 22.54, 61.44 28.32, 49.66 32 M51.58 33.19 C30.94 28.58, 17.34 22.46, 0.52 16.2 M50.76 33.19 C30.65 26.65, 9.47 19.79, 0.31 17.71 M0.09 15.6 C12.29 13.4, 20.94 8.12, 48.54 -0.77 M0.62 16.17 C19.65 10.8, 39.38 3.13, 49.94 -0.58" stroke="#a61e4d" stroke-width="1" fill="none"></path></g><g stroke-opacity="0.7" fill-opacity="0.7" transform="translate(894.809463722398 342.7353312724656) rotate(0 76.5722222222222 7.700000000000003)"><text x="0" y="12.400000000000002" font-family="Helvetica, Segoe UI Emoji" font-size="13.3944386675855px" fill="#a61e4d" text-anchor="start" style="white-space: pre;" direction="ltr">For building custom maps</text></g><g stroke-opacity="0.7" fill-opacity="0.7" transform="translate(898.7036102348402 307.6112864074111) rotate(0 130.47222222222229 11.550000000000011)"><text x="0" y="18.100000000000016" font-family="Helvetica, Segoe UI Emoji" font-size="19.953990639368246px" fill="#000000" text-anchor="start" style="white-space: pre;" direction="ltr">https://geojson-maps.ash.ms/</text></g><g stroke-opacity="0.7" fill-opacity="0.7" stroke-linecap="round" transform="translate(887.8000000000025 294.0584998669276) rotate(0 172.8222222222223 36.99439186820895)"><path d="M0 0 C121.28 0, 242.55 0, 345.64 0 M0 0 C126.42 0, 252.84 0, 345.64 0 M345.64 0 C345.64 28.84, 345.64 57.68, 345.64 73.99 M345.64 0 C345.64 21.36, 345.64 42.71, 345.64 73.99 M345.64 73.99 C214.66 73.99, 83.68 73.99, 0 73.99 M345.64 73.99 C215.68 73.99, 85.71 73.99, 0 73.99 M0 73.99 C0 51.48, 0 28.96, 0 0 M0 73.99 C0 47.21, 0 20.43, 0 0" stroke="#343a40" stroke-width="1" fill="none"></path></g><g stroke-linecap="round" transform="translate(52.00710340535443 65.30768809395997) rotate(0 49.46285544238185 16.147023848723876)"><path d="M48.01 -0.42 L97.22 16.53 L50.26 34.09 L1.56 15.47" stroke="none" stroke-width="0" fill="#4c6ef5" fill-rule="evenodd"></path><path d="M51.05 -0.28 C62.72 4.34, 73.71 7.58, 98.93 17.42 M49.86 0.93 C64.12 5.16, 77.56 10.69, 99.51 16.3 M98.58 16.67 C80.3 24.1, 63.32 26.42, 51.41 31.8 M98.94 17.47 C87.31 21.36, 73.31 25.24, 50.49 32.45 M51.16 33.78 C31.61 26.85, 15.96 20.83, -1.53 17.13 M50.82 31.79 C37.96 29.54, 24.86 25.34, -0.9 16.52 M0.9 18.17 C11.79 10.98, 27.52 6.77, 48.84 1.31 M0.48 16.57 C17.25 10.91, 33.47 6.3, 49.18 0.24" stroke="#364fc7" stroke-width="1" fill="none"></path></g><g stroke-linecap="round" transform="translate(52.00710340535443 57.51658588535716) rotate(0 49.46285544238185 16.147023848723876)"><path d="M49.58 -1.71 L98.45 17.26 L51.8 33.85 L-1.53 18.06" stroke="none" stroke-width="0" fill="#4c6ef5" fill-rule="evenodd"></path><path d="M49.72 1.8 C66.64 7.11, 81.84 10.69, 99.34 16.63 M50.93 0.46 C61.11 4.1, 73.09 8.46, 98.23 17.63 M98.6 16.08 C83.89 21.9, 64.23 28.6, 49.5 31.46 M99.39 17.96 C82.23 21.87, 65.36 27.99, 50.15 32.87 M51.49 31.92 C31.31 28.66, 11.83 19.48, 0.13 16.13 M49.5 32.98 C38.83 29.55, 26.87 24.66, -0.48 16.76 M1.17 15.09 C16.47 10.71, 34.88 3.43, 51.31 0.86 M-0.43 17.09 C14.22 11, 29.93 6.1, 50.24 -1" stroke="#364fc7" stroke-width="1" fill="none"></path></g><g stroke-linecap="round" transform="translate(52.00710340535443 46.424563591071234) rotate(0 49.46285544238185 16.147023848723876)"><path d="M48.29 -0.47 L99.19 18.8 L51.56 30.77 L1.06 18.57" stroke="none" stroke-width="0" fill="#4c6ef5" fill-rule="evenodd"></path><path d="M51.8 0.81 C69.15 6.29, 84.43 12.42, 98.56 15.59 M50.46 0 C61.08 4.1, 72.52 6.48, 99.55 17.36 M98 18.33 C81.94 20.28, 66.7 26.93, 49.17 33.16 M99.89 16.95 C79.31 23.12, 60.94 29.41, 50.58 33.08 M49.62 32.48 C38.32 28.19, 21.48 24.57, -0.87 15.67 M50.69 32.97 C30.33 26.33, 9.06 19.36, -0.24 17.58 M-1.91 15.49 C13.2 11.18, 25.25 9.01, 50.86 -0.21 M0.09 16.74 C14.08 13.08, 29.1 7.25, 49 -0.21" stroke="#364fc7" stroke-width="1" fill="none"></path></g><g stroke-linecap="round" transform="translate(52.00710340535443 35.419383063321135) rotate(0 49.46285544238185 16.147023848723876)"><path d="M49.53 0.26 L100.73 18.56 L48.47 33.35 L1.57 16.48" stroke="none" stroke-width="0" fill="#4c6ef5" fill-rule="evenodd"></path><path d="M50.81 1.89 C67.48 5.55, 84.88 11.18, 97.52 15.49 M50 0.12 C64.88 5.21, 77.41 10.11, 99.28 17.44 M100.26 16.85 C83.17 22.51, 70.73 24.6, 50.86 34.16 M98.88 16.62 C84.13 22.57, 69.66 27.27, 50.79 31.98 M50.18 34.16 C31.63 25.2, 14.23 20.39, -1.33 18.98 M50.67 32.71 C31.37 25.9, 11.39 20.71, 0.58 16.65 M-1.51 17.03 C16.13 10.45, 35.73 6.6, 49.79 0 M-0.26 16.16 C18.42 10.23, 35.09 4.13, 49.79 -0.85" stroke="#364fc7" stroke-width="1" fill="none"></path></g><g stroke-opacity="0.7" fill-opacity="0.7" transform="translate(55.89085173501326 118.76989138462824) rotate(0 105 12)"><text x="0" y="19" font-family="Helvetica, Segoe UI Emoji" font-size="21.159481247809378px" fill="#000000" text-anchor="start" style="white-space: pre;" direction="ltr">https://mapshaper.org/</text></g><g stroke-opacity="0.7" fill-opacity="0.7" transform="translate(52.112372940760224 152.0205047740431) rotate(0 53.5 9)"><text x="0" y="14" font-family="Helvetica, Segoe UI Emoji" font-size="15.402079318513783px" fill="#1864ab" text-anchor="start" style="white-space: pre;" direction="ltr">Map data editor</text></g><g stroke-opacity="0.7" fill-opacity="0.7" stroke-linecap="round" transform="translate(45.311111111110904 104.78951984589719) rotate(0 167.68888888888898 35.89554854539084)"><path d="M0 0 C114.13 0, 228.26 0, 335.38 0 M0 0 C100.69 0, 201.38 0, 335.38 0 M335.38 0 C335.38 26.32, 335.38 52.64, 335.38 71.79 M335.38 0 C335.38 21.19, 335.38 42.38, 335.38 71.79 M335.38 71.79 C231.68 71.79, 127.99 71.79, 0 71.79 M335.38 71.79 C212.22 71.79, 89.06 71.79, 0 71.79 M0 71.79 C0 55.66, 0 39.54, 0 0 M0 71.79 C0 52.15, 0 32.5, 0 0" stroke="#343a40" stroke-width="1" fill="none"></path></g></svg>